<?xml version="1.0" standalone="no"?>
<!DOCTYPE svg PUBLIC "-//W3C//DTD SVG 20010904//EN"
 "http://www.w3.org/TR/2001/REC-SVG-20010904/DTD/svg10.dtd">
<svg version="1.0" xmlns="http://www.w3.org/2000/svg"
 width="1275.000000pt" height="1651.000000pt" viewBox="0 0 1275.000000 1651.000000"
 preserveAspectRatio="xMidYMid meet">
<metadata>
Created by potrace 1.16, written by Peter Selinger 2001-2019
</metadata>
<g transform="translate(0.000000,1651.000000) scale(0.100000,-0.100000)"
fill="#000000" stroke="none">
<path d="M1581 15239 l-1 -76 37 1 c31 1 39 6 47 28 7 19 6 35 -3 54 -10 22
-16 25 -41 21 -25 -6 -29 -3 -33 21 -2 15 -5 -7 -6 -49z m65 -3 c8 -34 -4 -68
-23 -64 -21 4 -32 38 -22 66 11 29 37 28 45 -2z"/>
<path d="M1950 15235 c0 -43 4 -75 10 -75 6 0 10 17 10 39 0 39 20 68 40 56 5
-3 10 -26 10 -51 0 -24 5 -44 10 -44 12 0 13 80 1 99 -5 8 -19 12 -35 9 -22
-4 -26 -2 -26 18 0 13 -4 24 -10 24 -6 0 -10 -32 -10 -75z"/>
<path d="M1200 15230 c0 -40 4 -70 10 -70 6 0 10 21 10 48 l1 47 25 -47 c13
-27 29 -48 34 -48 6 0 10 31 10 71 0 44 -4 68 -10 64 -5 -3 -10 -27 -10 -53
l0 -47 -25 53 c-13 28 -29 52 -35 52 -6 0 -10 -28 -10 -70z"/>
<path d="M1837 15282 c-21 -23 -22 -86 -1 -106 20 -20 58 -21 74 -1 18 22 5
31 -15 11 -35 -35 -71 22 -49 78 7 19 35 21 52 4 6 -6 15 -8 19 -4 10 10 -25
36 -47 36 -9 0 -24 -8 -33 -18z"/>
<path d="M2220 15285 c0 -8 -6 -15 -12 -15 -10 0 -10 -2 -1 -8 6 -4 13 -28 15
-52 3 -41 6 -45 31 -48 15 -2 27 1 27 6 0 5 -8 9 -17 8 -14 -1 -19 8 -21 41
-3 37 0 42 20 46 l23 4 -22 2 c-13 0 -23 8 -23 16 0 8 -4 15 -10 15 -5 0 -10
-7 -10 -15z"/>
<path d="M1328 15245 c-8 -18 -9 -35 -2 -53 8 -22 15 -27 44 -27 29 0 36 5 44
27 15 42 -6 78 -44 78 -23 0 -33 -6 -42 -25z m60 3 c30 -30 -1 -94 -33 -68
-25 20 -13 80 15 80 3 0 11 -5 18 -12z"/>
<path d="M1462 15258 c-7 -7 -12 -26 -12 -43 0 -36 15 -55 45 -55 30 0 45 19
45 55 0 36 -15 55 -45 55 -12 0 -26 -5 -33 -12z m53 -43 c0 -33 -4 -40 -19
-40 -23 0 -36 33 -25 63 15 40 44 24 44 -23z"/>
<path d="M2085 15259 c-4 -6 -4 -13 0 -17 3 -3 10 0 15 7 8 14 40 9 40 -7 0
-4 -15 -12 -32 -17 -26 -8 -33 -15 -33 -35 0 -24 3 -25 55 -26 30 -1 49 1 43
3 -7 3 -13 20 -13 38 0 18 -3 40 -6 49 -7 18 -59 22 -69 5z m55 -58 c0 -14
-28 -33 -40 -26 -20 12 -10 35 15 35 14 0 25 -4 25 -9z"/>
</g>
</svg>
